<svg width="155" height="155" viewBox="0 0 155 155" fill="none" xmlns="http://www.w3.org/2000/svg">
<circle cx="77.5" cy="77.5" r="74" fill="black" stroke="url(#paint0_radial_4_127)" stroke-width="7"/>
<path d="M72 58L83.2239 67.1194C85.6866 69.1204 85.6866 72.8796 83.2239 74.8806L72 84" stroke="#00B2FF" stroke-width="4" stroke-linecap="round"/>
<path d="M56.7699 110.835H57.8499C57.8799 111.255 58.0049 111.63 58.2249 111.96C58.4449 112.29 58.7449 112.55 59.1249 112.74C59.5149 112.93 59.9699 113.025 60.4899 113.025C60.9399 113.025 61.3149 112.96 61.6149 112.83C61.9249 112.69 62.1549 112.5 62.3049 112.26C62.4649 112.02 62.5449 111.74 62.5449 111.42C62.5449 111.09 62.4649 110.825 62.3049 110.625C62.1449 110.425 61.9149 110.255 61.6149 110.115C61.3149 109.975 60.9599 109.84 60.5499 109.71C60.1599 109.59 59.7649 109.45 59.3649 109.29C58.9649 109.13 58.5899 108.935 58.2399 108.705C57.8999 108.475 57.6249 108.2 57.4149 107.88C57.2049 107.55 57.0999 107.155 57.0999 106.695C57.0999 106.245 57.2199 105.825 57.4599 105.435C57.7099 105.035 58.0699 104.715 58.5399 104.475C59.0199 104.225 59.5949 104.1 60.2649 104.1C61.3149 104.1 62.0999 104.385 62.6199 104.955C63.1399 105.525 63.3899 106.28 63.3699 107.22H62.2899C62.2699 106.51 62.0699 106 61.6899 105.69C61.3099 105.38 60.8149 105.225 60.2049 105.225C59.6949 105.225 59.2499 105.345 58.8699 105.585C58.4899 105.815 58.2999 106.18 58.2999 106.68C58.2999 106.9 58.3399 107.095 58.4199 107.265C58.5099 107.425 58.6499 107.575 58.8399 107.715C59.0399 107.855 59.3049 107.995 59.6349 108.135C59.9749 108.265 60.3899 108.41 60.8799 108.57C61.1999 108.67 61.5249 108.79 61.8549 108.93C62.1949 109.07 62.5049 109.245 62.7849 109.455C63.0749 109.665 63.3049 109.935 63.4749 110.265C63.6549 110.585 63.7449 110.99 63.7449 111.48C63.7449 111.95 63.6299 112.39 63.3999 112.8C63.1799 113.2 62.8299 113.525 62.3499 113.775C61.8799 114.025 61.2699 114.15 60.5199 114.15C59.8799 114.15 59.3299 114.065 58.8699 113.895C58.4199 113.715 58.0499 113.485 57.7599 113.205C57.4699 112.925 57.2449 112.635 57.0849 112.335C56.9349 112.025 56.8349 111.735 56.7849 111.465C56.7349 111.195 56.7299 110.985 56.7699 110.835ZM64.5701 104.25H72.3701V105.375H64.5701V104.25ZM67.8701 105.255H69.0701V114H67.8701V105.255ZM73.9786 111.45V110.325H78.6586V111.45H73.9786ZM71.9986 114L75.7036 104.25H76.9636L80.6986 114H79.4086L76.1536 105.18H76.5136L73.2586 114H71.9986ZM82.2004 114V104.25H86.5054C87.1854 104.25 87.7654 104.355 88.2454 104.565C88.7254 104.765 89.0904 105.07 89.3404 105.48C89.6004 105.89 89.7304 106.405 89.7304 107.025C89.7304 107.445 89.6604 107.805 89.5204 108.105C89.3904 108.405 89.2054 108.66 88.9654 108.87C88.7254 109.07 88.4404 109.225 88.1104 109.335C87.7904 109.445 87.4404 109.515 87.0604 109.545L87.0154 109.47C87.5454 109.49 88.0004 109.555 88.3804 109.665C88.7604 109.775 89.0554 109.975 89.2654 110.265C89.4754 110.555 89.5804 110.99 89.5804 111.57V114H88.3804V111.57C88.3804 111.17 88.3104 110.86 88.1704 110.64C88.0404 110.41 87.8154 110.25 87.4954 110.16C87.1854 110.06 86.7554 110.01 86.2054 110.01H83.4004V114H82.2004ZM83.4004 108.885H86.5054C87.1854 108.885 87.6904 108.715 88.0204 108.375C88.3604 108.025 88.5304 107.575 88.5304 107.025C88.5304 106.495 88.3604 106.09 88.0204 105.81C87.6904 105.52 87.1854 105.375 86.5054 105.375H83.4004V108.885ZM90.8494 104.25H98.6494V105.375H90.8494V104.25ZM94.1494 105.255H95.3494V114H94.1494V105.255Z" fill="#7C7C7C"/>
<defs>
<radialGradient id="paint0_radial_4_127" cx="0" cy="0" r="1" gradientUnits="userSpaceOnUse" gradientTransform="translate(77.5 77.5) rotate(90) scale(91.5 77.1453)">
<stop stop-color="#00B2FF"/>
<stop offset="1" stop-color="#00B2FF" stop-opacity="0"/>
</radialGradient>
</defs>
</svg>
