<svg width="244" height="108" viewBox="0 0 244 108" fill="none" xmlns="http://www.w3.org/2000/svg">
<rect x="3" y="3" width="238" height="102" rx="51" fill="black" stroke="url(#paint0_radial_7_151)" stroke-width="6"/>
<path d="M164 49L173.119 37.7761C175.12 35.3134 178.88 35.3134 180.881 37.7761L190 49" stroke="#00B2FF" stroke-width="4" stroke-linecap="round"/>
<path d="M177 58L186.119 69.2239C188.12 71.6866 191.88 71.6866 193.881 69.2239L203 58" stroke="#00B2FF" stroke-width="4" stroke-linecap="round"/>
<path d="M45.3053 56.725H47.1053C47.1553 57.425 47.3636 58.05 47.7303 58.6C48.0969 59.15 48.5969 59.5833 49.2303 59.9C49.8803 60.2167 50.6386 60.375 51.5053 60.375C52.2553 60.375 52.8803 60.2667 53.3803 60.05C53.8969 59.8167 54.2803 59.5 54.5303 59.1C54.7969 58.7 54.9303 58.2333 54.9303 57.7C54.9303 57.15 54.7969 56.7083 54.5303 56.375C54.2636 56.0417 53.8803 55.7583 53.3803 55.525C52.8803 55.2917 52.2886 55.0667 51.6053 54.85C50.9553 54.65 50.2969 54.4167 49.6303 54.15C48.9636 53.8833 48.3386 53.5583 47.7553 53.175C47.1886 52.7917 46.7303 52.3333 46.3803 51.8C46.0303 51.25 45.8553 50.5917 45.8553 49.825C45.8553 49.075 46.0553 48.375 46.4553 47.725C46.8719 47.0583 47.4719 46.525 48.2553 46.125C49.0553 45.7083 50.0136 45.5 51.1303 45.5C52.8803 45.5 54.1886 45.975 55.0553 46.925C55.9219 47.875 56.3386 49.1333 56.3053 50.7H54.5053C54.4719 49.5167 54.1386 48.6667 53.5053 48.15C52.8719 47.6333 52.0469 47.375 51.0303 47.375C50.1803 47.375 49.4386 47.575 48.8053 47.975C48.1719 48.3583 47.8553 48.9667 47.8553 49.8C47.8553 50.1667 47.9219 50.4917 48.0553 50.775C48.2053 51.0417 48.4386 51.2917 48.7553 51.525C49.0886 51.7583 49.5303 51.9917 50.0803 52.225C50.6469 52.4417 51.3386 52.6833 52.1553 52.95C52.6886 53.1167 53.2303 53.3167 53.7803 53.55C54.3469 53.7833 54.8636 54.075 55.3303 54.425C55.8136 54.775 56.1969 55.225 56.4803 55.775C56.7803 56.3083 56.9303 56.9833 56.9303 57.8C56.9303 58.5833 56.7386 59.3167 56.3553 60C55.9886 60.6667 55.4053 61.2083 54.6053 61.625C53.8219 62.0417 52.8053 62.25 51.5553 62.25C50.4886 62.25 49.5719 62.1083 48.8053 61.825C48.0553 61.525 47.4386 61.1417 46.9553 60.675C46.4719 60.2083 46.0969 59.725 45.8303 59.225C45.5803 58.7083 45.4136 58.225 45.3303 57.775C45.2469 57.325 45.2386 56.975 45.3053 56.725ZM64.2807 62L58.4307 45.75H60.5807L65.6057 59.85H65.0057L69.8307 45.75H71.9807L76.8057 59.85H76.2057L81.2307 45.75H83.3307L77.5307 62H75.4307L70.6307 47.4H71.1807L66.3807 62H64.2807ZM86.334 45.75H88.334V62H86.334V45.75ZM91.2158 45.75H104.216V47.625H91.2158V45.75ZM96.7158 47.425H98.7158V62H96.7158V47.425ZM119.316 56.575C119.149 57.7417 118.749 58.75 118.116 59.6C117.482 60.45 116.674 61.1083 115.691 61.575C114.724 62.025 113.641 62.25 112.441 62.25C111.324 62.25 110.291 62.0583 109.341 61.675C108.391 61.275 107.557 60.7083 106.841 59.975C106.141 59.2417 105.591 58.3583 105.191 57.325C104.791 56.2917 104.591 55.1417 104.591 53.875C104.591 52.5917 104.791 51.4417 105.191 50.425C105.591 49.3917 106.141 48.5083 106.841 47.775C107.557 47.0417 108.391 46.4833 109.341 46.1C110.291 45.7 111.324 45.5 112.441 45.5C113.657 45.5 114.749 45.7333 115.716 46.2C116.699 46.65 117.507 47.3083 118.141 48.175C118.774 49.025 119.174 50.0417 119.341 51.225H117.491C117.257 50.3917 116.891 49.6917 116.391 49.125C115.907 48.5583 115.324 48.125 114.641 47.825C113.957 47.525 113.224 47.375 112.441 47.375C111.424 47.375 110.466 47.625 109.566 48.125C108.682 48.625 107.966 49.3583 107.416 50.325C106.866 51.2917 106.591 52.475 106.591 53.875C106.591 55.275 106.866 56.4583 107.416 57.425C107.966 58.3917 108.682 59.125 109.566 59.625C110.466 60.125 111.424 60.375 112.441 60.375C113.224 60.375 113.949 60.2333 114.616 59.95C115.299 59.65 115.882 59.2167 116.366 58.65C116.866 58.0833 117.232 57.3917 117.466 56.575H119.316ZM124.427 52.95H134.727V54.825H124.427V52.95ZM134.602 45.75H136.602V62H134.602V45.75ZM122.602 45.75H124.602V62H122.602V45.75Z" fill="white"/>
<defs>
<radialGradient id="paint0_radial_7_151" cx="0" cy="0" r="1" gradientUnits="userSpaceOnUse" gradientTransform="translate(122 54) rotate(90) scale(63.7548 121.442)">
<stop stop-color="#00B2FF"/>
<stop offset="1" stop-color="#00B2FF" stop-opacity="0"/>
</radialGradient>
</defs>
</svg>
